<?xml version="1.0" standalone="no"?>
<!DOCTYPE svg PUBLIC "-//W3C//DTD SVG 20010904//EN"
 "http://www.w3.org/TR/2001/REC-SVG-20010904/DTD/svg10.dtd">
<svg version="1.0" xmlns="http://www.w3.org/2000/svg"
 width="700.000000pt" height="700.000000pt" viewBox="0 0 700.000000 700.000000"
 preserveAspectRatio="xMidYMid meet">
<metadata>
Created by potrace 1.11, written by Peter Selinger 2001-2013
</metadata>
<g transform="translate(0.000000,700.000000) scale(0.100000,-0.100000)"
fill="#000000" stroke="none">
<path d="M0 3500 l0 -3500 3500 0 3500 0 0 3500 0 3500 -3500 0 -3500 0 0
-3500z m5796 3055 c11 -3 26 -16 32 -30 9 -20 12 -758 12 -3040 l0 -3014 -27
-20 -26 -21 -888 2 -888 3 -23 23 -23 23 0 1693 c0 1420 -2 1696 -14 1709 -12
16 -120 17 -1377 17 -1583 0 -1407 -15 -1402 118 5 127 -161 114 1468 110
l1395 -3 56 26 c31 15 75 43 97 64 44 39 102 120 102 141 0 7 -33 36 -72 65
-40 28 -111 91 -158 139 -68 69 -97 92 -145 111 l-60 24 -1329 1 c-1282 1
-1329 1 -1342 19 -9 12 -14 46 -14 92 0 60 4 77 20 93 23 23 -142 21 1756 20
731 0 883 2 893 13 10 12 18 67 37 252 3 28 0 57 -5 65 -9 13 -173 16 -1341
20 -1304 5 -1332 5 -1346 24 -8 11 -14 42 -14 68 0 39 5 54 25 73 l24 25 1366
0 c1163 0 1371 2 1400 14 19 8 70 44 113 79 88 72 158 109 247 132 165 42 340
-11 476 -145 69 -68 159 -208 159 -247 0 -25 -49 -67 -99 -84 -28 -10 -37 -9
-59 8 -15 11 -40 42 -55 69 -67 116 -161 180 -280 191 -199 18 -375 -124 -431
-348 -51 -207 27 -398 221 -535 128 -92 257 -134 414 -134 122 0 222 25 337
85 166 86 280 206 372 390 150 299 158 599 24 893 -100 219 -268 389 -462 468
-176 71 -261 77 -900 65 -803 -16 -2810 -16 -2844 -1 -78 36 -74 188 6 203 28
5 4545 -3 4572 -8z m-4233 -3424 c16 -12 17 -118 17 -1331 0 -1285 0 -1318
-19 -1341 -18 -22 -26 -24 -119 -23 -130 1 -150 7 -166 47 -11 26 -14 289 -17
1330 l-4 1299 25 20 c22 18 36 20 146 16 83 -2 126 -7 137 -17z m696 -7 c15
-18 16 -143 16 -1338 l0 -1318 -25 -20 c-23 -18 -35 -20 -145 -16 -66 3 -128
8 -137 12 -9 4 -22 22 -27 39 -7 22 -10 454 -8 1323 2 1242 3 1293 21 1312 25
28 42 31 175 28 100 -2 116 -5 130 -22z m595 17 c60 -5 81 -11 92 -26 12 -16
14 -224 14 -1323 0 -1315 0 -1332 -34 -1354 -20 -14 -260 -9 -280 5 -16 12
-17 91 -16 1330 0 770 4 1327 10 1341 5 13 15 26 22 29 18 8 99 7 192 -2z
m776 -11 c6 -9 10 -523 10 -1337 l0 -1323 -21 -21 c-20 -20 -29 -21 -128 -17
-124 6 -136 10 -159 52 -16 29 -17 125 -20 1316 -2 706 0 1295 3 1308 9 35 39
42 178 39 101 -2 130 -5 137 -17z"/>
</g>
</svg>
