<?xml version="1.0" encoding="utf-8"?>
<!-- Generator: Adobe Illustrator 23.0.1, SVG Export Plug-In . SVG Version: 6.00 Build 0)  -->
<svg version="1.2" baseProfile="tiny" id="Camada_1"
	 xmlns="http://www.w3.org/2000/svg" xmlns:xlink="http://www.w3.org/1999/xlink" x="0px" y="0px" viewBox="0 0 36.38 42.38"
	 xml:space="preserve">
<g>
	<path fill="none" d="M15.32,17.99c-0.49-3.89-0.57-7.79-1.14-11.65c-0.66-0.2-0.94,0.1-0.73,0.95c0.99,3.86,0.49,7.89,0.99,11.83
		c0.02,0.22,0.05,0.42,0.07,0.62C15.23,19.58,15.45,19.01,15.32,17.99z"/>
	<path fill="none" d="M12.45,24.48c3.18,1.97,5.86,4.49,8.25,7.38c0.97-1.79,2.01-3.57,3.35-5.09c0.82-0.98,0.41-1.31-0.66-1.64
		c-1.4-0.41-3.04-0.66-3.29-2.46c-0.16-1.4-0.57-2.88-0.41-4.35c0.16-2.3,0.41-4.68,0.41-6.98c-0.08-3.42-0.16-3.68-2.96-4.22
		c0.72,3.6,0.35,7.32,0.8,10.97c0.41,3.67,0.97,4.5-3.51,4.84c-0.35,0.52-1.1,0.8-2.57,0.97C12.01,24.08,12.27,24.3,12.45,24.48z"/>
	<path fill="#00115B" d="M17.95,18.07c-0.46-3.65-0.08-7.37-0.8-10.97c-0.23-0.04-0.47-0.09-0.74-0.14
		c-0.66-0.08-1.31-0.25-1.89-0.49c-0.12-0.06-0.23-0.1-0.34-0.13c0.57,3.86,0.64,7.75,1.14,11.65c0.13,1.02-0.1,1.59-0.81,1.76
		c0.19,1.57,0.34,2.54-0.07,3.16C18.92,22.58,18.36,21.74,17.95,18.07z"/>
	<path fill="#00115B" d="M8.94,25.54c3.45,2.14,6.33,4.93,8.87,8.13c0.25,0.33,0.66,0.49,0.9,0.74c0.82,0,0.9-0.57,1.15-0.99
		c0.28-0.52,0.56-1.04,0.84-1.56c-2.39-2.89-5.08-5.41-8.25-7.38c-0.18-0.18-0.44-0.4-0.57-0.61c-0.32,0.04-0.66,0.07-1.05,0.1
		c-0.49,0.08-0.99,0.16-1.48,0.33c-0.41,0-0.99-0.16-1.07,0.41C8.28,24.96,8.69,25.29,8.94,25.54z"/>
	<path fill="#00115B" d="M11.83,19.84c-1.64,0.11-3.27,0.42-4.8,0.95c-0.38,0.14-0.81,0.29-1.23,0.45c1.46-0.3,2.95-0.44,4.46-0.38
		C11.26,20.92,11.73,20.59,11.83,19.84z"/>
	<path fill="#00115B" d="M35.62,20.95c-2.05-0.82-4.11-1.64-6.33-1.32c-1.23,0.16-1.48-0.08-1.56-1.31
		c-0.08-5.01,0.08-10.1,1.31-15.03c0.41-1.89-0.41-2.63-2.14-2.71C24.12,0.49,21.24,0.41,18.36,0c-1.07,0.08-2.14,0.16-3.2,0.41
		c-0.61,0.09-1.12,0.34-1.44,0.74c0.38-0.04,0.75-0.07,1.13-0.1c2.88,0.41,5.75,0.49,8.54,0.57c1.73,0.08,2.55,0.82,2.14,2.71
		c-1.23,4.93-1.4,10.02-1.31,15.03c0.08,1.23,0.33,1.48,1.56,1.31C28,20.36,30.05,21.18,32.1,22c1.15,0.49,0.99,2.71-0.41,4.11
		c-0.74,0.74-1.56,1.48-2.47,2.14c-3.29,2.22-4.93,5.5-5.83,9.2c-0.25,0.9-0.49,1.89-0.82,2.71c-0.13,0.28-0.26,0.56-0.42,0.82
		c0.4,0.25,0.87,0.38,1.46,0.35c1.4-0.08,1.97-1.15,2.47-2.22c0.33-0.82,0.57-1.81,0.82-2.71c0.9-3.7,2.55-6.98,5.83-9.2
		c0.9-0.66,1.73-1.4,2.47-2.14C36.6,23.66,36.77,21.44,35.62,20.95z"/>
	<path fill="#FED102" d="M23.4,37.45c0.9-3.7,2.55-6.98,5.83-9.2c0.9-0.66,1.73-1.4,2.47-2.14c1.4-1.4,1.56-3.61,0.41-4.11
		c-2.05-0.82-4.11-1.64-6.33-1.32c-1.23,0.16-1.48-0.08-1.56-1.31c-0.08-5.01,0.08-10.1,1.31-15.03c0.41-1.89-0.41-2.63-2.14-2.71
		c-2.79-0.08-5.67-0.16-8.54-0.57c-0.38,0.03-0.75,0.06-1.13,0.1c-0.69,0.07-1.38,0.15-2.08,0.31C10.5,1.63,9.68,2.37,9.92,3.6
		c1.31,5.09,1.23,10.27,1.89,15.45c0.04,0.3,0.04,0.56,0.01,0.79c-0.09,0.75-0.56,1.08-1.58,1.02c-1.5-0.05-3,0.09-4.46,0.38
		c-0.77,0.16-1.54,0.35-2.28,0.6c-1.31,0.49-3.2,0.99-3.45,2.3c-0.41,1.64,1.23,2.79,2.63,3.61c0.74,0.41,1.48,0.74,2.22,0.99
		c0.9,0.25,1.56,0.66,2.3,1.23c3.94,3.12,7.48,6.57,10.27,10.76c0.57,0.98,1.31,1.72,2.63,1.64c1.03-0.06,1.61-0.66,2.05-1.4
		c0.15-0.26,0.29-0.54,0.42-0.82C22.9,39.34,23.15,38.35,23.4,37.45z M9.35,24.3c0.49-0.16,0.98-0.25,1.48-0.33
		c0.39-0.03,0.73-0.06,1.05-0.1c1.47-0.17,2.22-0.44,2.57-0.97c0.41-0.62,0.26-1.59,0.07-3.16c-0.02-0.2-0.05-0.4-0.07-0.62
		c-0.49-3.94,0-7.97-0.99-11.83c-0.21-0.85,0.07-1.15,0.73-0.95c0.1,0.03,0.22,0.07,0.34,0.13c0.57,0.25,1.23,0.41,1.89,0.49
		c0.27,0.05,0.51,0.09,0.74,0.14c2.8,0.54,2.89,0.8,2.96,4.22c0,2.3-0.25,4.68-0.41,6.98c-0.16,1.48,0.25,2.96,0.41,4.35
		c0.25,1.81,1.89,2.05,3.29,2.46c1.07,0.33,1.48,0.66,0.66,1.64c-1.34,1.53-2.38,3.3-3.35,5.09c-0.28,0.52-0.56,1.04-0.84,1.56
		c-0.25,0.41-0.33,0.99-1.15,0.99c-0.25-0.25-0.66-0.41-0.9-0.74c-2.55-3.2-5.42-6-8.87-8.13c-0.25-0.25-0.66-0.57-0.66-0.82
		C8.36,24.14,8.94,24.3,9.35,24.3z"/>
</g>
<g>
</g>
<g>
</g>
<g>
</g>
<g>
</g>
<g>
</g>
<g>
</g>
</svg>
