<?xml version="1.0" encoding="utf-8"?>
<!-- Generator: Adobe Illustrator 23.0.1, SVG Export Plug-In . SVG Version: 6.00 Build 0)  -->
<svg version="1.2" baseProfile="tiny" id="Camada_1"
	 xmlns="http://www.w3.org/2000/svg" xmlns:xlink="http://www.w3.org/1999/xlink" x="0px" y="0px" viewBox="0 0 161 8.12"
	 xml:space="preserve">
<path fill="#FFFFFF" d="M0,5.36c0.17-1.21,1.21-1.73,2.42-1.9C3.8,3.97,5.53,4.32,5.53,6.22c0,1.55-1.38,1.9-2.59,1.9
	C1.04,8.12,0,7.08,0,5.36z M12.78,4.84c-0.17-1.21,1.04-1.9,1.9-1.73c1.55,0.17,3.28,0.87,3.46,2.76c0.35,1.55-1.21,1.55-1.9,1.55
	C13.99,7.43,12.95,6.56,12.78,4.84z M25.05,4.14c-0.17-1.04,0.86-1.55,1.73-1.38c1.55,0.35,3.63,0.52,3.63,2.59
	c0,1.21-1.55,1.73-2.76,2.07C25.91,6.91,25.05,5.7,25.05,4.14z M37.48,4.66c-0.17-1.38,1.21-2.25,2.59-2.07
	c1.73,0.17,3.63,1.04,3.8,2.94c0.17,2.07-2.25,0.86-3.28,1.55C39.04,6.74,37.48,6.39,37.48,4.66z M50.61,3.46
	c-0.34-1.21,1.04-1.21,2.07-1.38c1.38,1.04,3.8,1.21,3.97,3.63c0.17,1.04-0.87,1.73-2.07,1.55C52.34,6.91,50.78,5.7,50.61,3.46z
	 M62.88,3.11c0-1.04,1.04-1.38,2.07-1.55c1.55,0.86,3.63,1.38,4.15,3.46c0.17,0.86-0.87,1.73-1.9,1.38
	C65.29,6.05,63.22,5.53,62.88,3.11z M76,3.63c-0.17-0.69,0.35-1.55,1.55-1.55c1.38,0.69,3.28,1.04,3.46,3.11
	c0.17,0.86-0.17,1.73-1.21,1.55C78.08,6.39,76.52,5.53,76,3.63z M87.92,3.28c-0.35-0.87,0.17-1.9,1.38-1.73
	c1.9,0.17,3.28,1.21,4.14,2.76c0,1.21-0.69,1.73-1.73,1.73C90,5.87,88.27,5.36,87.92,3.28z M99.5,2.94
	c-0.17-1.21,0.86-1.73,1.9-1.55c1.9,0.35,3.28,1.73,3.8,3.46c0.35,1.38-1.04,1.04-1.9,1.04C101.4,5.7,99.67,5.18,99.5,2.94z
	 M112.11,2.42c-0.17-1.04,0.52-1.38,1.72-1.38c1.38,0.69,3.11,1.21,3.28,3.11c0.35,1.38-1.04,1.55-2.07,1.55
	C113.14,5.53,112.45,3.97,112.11,2.42z M124.72,2.59c-0.17-1.55,1.21-1.73,2.42-1.73c2.25,0,3.8,1.04,4.49,3.28
	c-0.17,1.38-1.21,2.42-2.24,2.07C127.48,5.7,125.24,5.01,124.72,2.59z M139.57,3.97c-0.52-0.69-0.86-1.38-0.35-2.25
	c0.35-0.52,1.04-0.69,1.21-0.69c3.11,0.17,4.14,2.25,5.53,3.8c0.52,0.52,0,1.55-0.86,1.38C143.2,5.7,140.96,5.87,139.57,3.97z
	 M154.26,1.55C154.08,0.52,154.78,0,155.99,0c1.9,0.17,5.18,2.76,5.01,4.14c-0.17,1.38-1.21,1.38-2.25,1.38
	C155.99,5.7,154.78,3.8,154.26,1.55z"/>
<g>
</g>
<g>
</g>
<g>
</g>
<g>
</g>
<g>
</g>
<g>
</g>
</svg>
