<?xml version="1.0" encoding="utf-8"?>
<!-- Generator: Adobe Illustrator 23.0.1, SVG Export Plug-In . SVG Version: 6.00 Build 0)  -->
<svg version="1.2" baseProfile="tiny" id="Camada_1"
	 xmlns="http://www.w3.org/2000/svg" xmlns:xlink="http://www.w3.org/1999/xlink" x="0px" y="0px" viewBox="0 0 160.7 11.87"
	 xml:space="preserve">
<g>
	<path fill="#CC295E" d="M160.31,3.32c-0.77-0.38-1.4-0.64-2.04-1.02c-2.94-1.91-2.94-2.04-5.75,0.13c-2.17,1.66-2.3,1.92-4.34-0.13
		c-1.4-1.4-2.43-1.27-3.7,0c-0.38,0.26-0.89,0.51-1.15,0.9c-1.15,1.28-2.17,1.15-3.07-0.13c-1.91-2.68-2.68-1.92-4.47-0.13
		c-0.89,1.02-1.79,1.15-2.94,0.26c-3.58-2.81-2.43-2.17-6,0c-0.26,0.13-0.38,0.38-0.64,0.51c-0.77,0.64-1.27,0.51-1.79-0.25
		c-2.55-3.45-2.17-2.81-5.36-0.64c-0.26,0.26-0.64,0.38-0.77,0.64c-0.89,1.02-1.53,0.77-2.43,0c-0.77-0.77-0.89-2.43-2.43-2.3
		c-1.28,0-1.66,1.53-2.68,2.04c-0.13,0.13-0.26,0.13-0.38,0.38c-1.02,1.02-1.66,0.9-2.68-0.13c-2.81-2.55-2.81-2.55-5.75-0.26
		c-1.28,1.02-1.91,0.89-3.06-0.13c-2.04-2.04-2.3-2.04-4.47,0.13c-2.17,1.91-2.3,1.91-4.21-0.26c-0.26-0.13-0.38-0.38-0.51-0.64
		c-0.64-1.02-1.4-1.02-2.3-0.13c-0.38,0.38-1.02,0.64-1.4,1.15c-1.28,1.53-2.17,1.02-3.19-0.38c-1.79-2.43-1.66-2.3-3.96-0.51
		c-0.26,0.26-0.64,0.38-0.77,0.64c-1.02,1.28-1.66,0.64-2.43-0.26c-1.79-2.43-1.79-2.43-4.21-0.51c-2.55,2.04-2.68,2.04-4.47-0.64
		c-0.89-1.15-1.66-1.28-2.81-0.38c-0.38,0.38-1.02,0.51-1.4,1.02c-1.28,1.53-2.3,1.02-3.58-0.25c-2.17-2.17-2.17-2.17-4.47-0.13
		C52.68,3.7,52.68,3.7,50.9,1.66c-1.91-2.17-1.91-2.17-4.09-0.26c-2.04,2.04-2.04,2.04-4.6,0.26l-1.53-1.02
		c-0.64-0.38-1.15-0.38-1.79,0.13l-3.06,2.55c-0.38,0.25-1.15,0.51-0.64,1.15c0.38,0.38,1.02,0.51,1.4,0.13
		c0.89-0.51,1.66-1.15,2.3-1.79c0.89-0.77,1.66-0.89,2.81,0c3.19,2.43,3.19,2.43,6.64,0c0-0.13,0-0.13,0.13-0.13
		c0.51-0.64,1.02-0.51,1.53,0c0.38,0.51,0.89,0.89,1.28,1.28c1.02,1.4,2.17,1.66,3.58,0.38c0.38-0.38,0.89-0.64,1.27-1.02
		c1.15-1.28,1.92-0.77,2.81,0.25c2.17,2.43,2.17,2.3,4.85,0.38c0.26-0.26,0.64-0.38,0.89-0.64c0.77-0.64,1.15-0.38,1.79,0.25
		c2.55,2.81,2.68,2.81,5.75,0.38c1.28-1.02,2.04-1.15,3.06,0.38c1.53,2.04,1.91,1.91,3.83,0.26c1.91-1.79,1.91-1.79,3.58,0.13
		c1.91,2.3,1.79,2.3,3.96,0.26c1.02-1.15,2.04-1.91,3.58-0.51c2.43,2.3,2.55,2.17,5.11,0.13l0.26-0.26
		c0.89-1.02,1.79-1.15,2.94-0.13c1.53,1.53,3.07,1.91,4.98,0c0.64-0.64,1.53-1.53,2.81-0.38c0.9,0.89,1.79,2.55,3.07,2.43
		c1.4-0.13,2.3-1.53,3.32-2.43c0.64-0.38,1.15-0.64,1.79,0c2.81,2.3,2.81,2.3,6,0.13c0.26-0.13,0.64-0.38,0.9-0.64
		c0.51-0.26,0.89-0.26,1.4,0.25c0.77,1.02,1.4,2.43,2.68,2.55c1.28,0,2.04-1.4,3.19-2.04c0.13-0.13,0.38-0.38,0.64-0.51
		c0.77-0.51,1.4-0.64,2.17,0.13c0.38,0.51,1.15,0.64,1.53,1.15c1.4,1.4,2.68,1.15,3.83-0.38c1.15-1.4,2.17-1.15,3.32,0
		c1.4,1.53,2.55,1.66,4.21,0.13c2.3-2.04,2.55-2.17,4.98,0c1.15,1.02,2.04,1.02,3.19,0.13c2.04-1.79,4.08-3.06,6.13-0.25
		c0.13,0.25,0.51,0.38,0.64,0.38c0.64,0,1.15-0.25,1.4-0.89C160.57,3.83,160.44,3.45,160.31,3.32z"/>
	<path fill="#FFFFFF" d="M123.25,7.69c-2.94-1.91-2.94-2.04-5.75,0.13c-2.17,1.66-2.3,1.92-4.34-0.13c-1.4-1.4-2.43-1.27-3.7,0
		c-0.38,0.26-0.89,0.51-1.15,0.9c-1.15,1.28-2.17,1.15-3.07-0.13c-1.91-2.68-2.68-1.92-4.47-0.13c-0.89,1.02-1.79,1.15-2.94,0.26
		c-3.58-2.81-2.43-2.17-6,0c-0.26,0.13-0.38,0.38-0.64,0.51c-0.77,0.64-1.27,0.51-1.79-0.25c-2.55-3.45-2.17-2.81-5.36-0.64
		c-0.26,0.26-0.64,0.38-0.77,0.64c-0.89,1.02-1.53,0.77-2.43,0c-0.77-0.77-0.89-2.43-2.43-2.3c-1.28,0-1.66,1.53-2.68,2.04
		c-0.13,0.13-0.26,0.13-0.38,0.38c-1.02,1.02-1.66,0.9-2.68-0.13c-2.81-2.55-2.81-2.55-5.75-0.26c-1.28,1.02-1.91,0.89-3.06-0.13
		c-2.04-2.04-2.3-2.04-4.47,0.13c-2.17,1.91-2.3,1.91-4.21-0.26c-0.26-0.13-0.38-0.38-0.51-0.64c-0.64-1.02-1.4-1.02-2.3-0.13
		c-0.38,0.38-1.02,0.64-1.4,1.15c-1.28,1.53-2.17,1.02-3.19-0.38C46,5.9,46.13,6.03,43.83,7.82c-0.26,0.26-0.64,0.38-0.77,0.64
		c-1.02,1.28-1.66,0.64-2.43-0.26c-1.79-2.43-1.79-2.43-4.21-0.51c-2.55,2.04-2.68,2.04-4.47-0.64c-0.89-1.15-1.66-1.28-2.81-0.38
		c-0.38,0.38-1.02,0.51-1.4,1.02c-1.28,1.53-2.3,1.02-3.58-0.25C22,5.26,22,5.26,19.71,7.31c-2.04,1.79-2.04,1.79-3.83-0.26
		c-1.91-2.17-1.91-2.17-4.09-0.26c-2.04,2.04-2.04,2.04-4.6,0.26L5.66,6.03C5.02,5.65,4.51,5.65,3.87,6.16L0.81,8.71
		C0.43,8.97-0.34,9.22,0.17,9.86c0.38,0.38,1.02,0.51,1.4,0.13c0.89-0.51,1.66-1.15,2.3-1.79c0.89-0.77,1.66-0.89,2.81,0
		c3.19,2.43,3.19,2.43,6.64,0c0-0.13,0-0.13,0.13-0.13c0.51-0.64,1.02-0.51,1.53,0c0.38,0.51,0.89,0.89,1.28,1.28
		c1.02,1.4,2.17,1.66,3.58,0.38c0.38-0.38,0.89-0.64,1.27-1.02c1.15-1.28,1.92-0.77,2.81,0.25c2.17,2.43,2.17,2.3,4.85,0.38
		c0.26-0.26,0.64-0.38,0.89-0.64c0.77-0.64,1.15-0.38,1.79,0.25c2.55,2.81,2.68,2.81,5.75,0.38c1.28-1.02,2.04-1.15,3.06,0.38
		c1.53,2.04,1.91,1.91,3.83,0.26C46,8.2,46,8.2,47.67,10.11c1.91,2.3,1.79,2.3,3.96,0.26c1.02-1.15,2.04-1.91,3.58-0.51
		c2.43,2.3,2.55,2.17,5.11,0.13l0.26-0.26c0.89-1.02,1.79-1.15,2.94-0.13c1.53,1.53,3.07,1.91,4.98,0c0.64-0.64,1.53-1.53,2.81-0.38
		c0.9,0.89,1.79,2.55,3.07,2.43c1.4-0.13,2.3-1.53,3.32-2.43c0.64-0.38,1.15-0.64,1.79,0c2.81,2.3,2.81,2.3,6,0.13
		c0.26-0.13,0.64-0.38,0.9-0.64c0.51-0.26,0.89-0.26,1.4,0.25c0.77,1.02,1.4,2.43,2.68,2.55c1.28,0,2.04-1.4,3.19-2.04
		c0.13-0.13,0.38-0.38,0.64-0.51c0.77-0.51,1.4-0.64,2.17,0.13c0.38,0.51,1.15,0.64,1.53,1.15c1.4,1.4,2.68,1.15,3.83-0.38
		c1.15-1.4,2.17-1.15,3.32,0c1.4,1.53,2.55,1.66,4.21,0.13c2.3-2.04,2.55-2.17,4.98,0c1.15,1.02,2.04,1.02,3.19,0.13
		c2.04-1.79,4.08-3.06,6.13-0.25c0.13,0.25,0.51,0.38,0.64,0.38c0.64,0,1.15-0.25,1.4-0.89c-0.13-0.13-0.26-0.51-0.38-0.64
		C124.52,8.33,123.89,8.07,123.25,7.69z"/>
</g>
<g>
</g>
<g>
</g>
<g>
</g>
<g>
</g>
<g>
</g>
<g>
</g>
</svg>
