<?xml version="1.0" encoding="utf-8"?>
<!-- Generator: Adobe Illustrator 23.0.1, SVG Export Plug-In . SVG Version: 6.00 Build 0)  -->
<svg version="1.2" baseProfile="tiny" id="Camada_1"
	 xmlns="http://www.w3.org/2000/svg" xmlns:xlink="http://www.w3.org/1999/xlink" x="0px" y="0px" viewBox="0 0 183.26 85.7"
	 xml:space="preserve">
<g>
	<path fill="#7AC2DC" d="M62.43,71.92c-0.41-2.64-0.99-6.26-5.17-5.79l0,0c-0.26,0.03-0.51,0.08-0.76,0.13l-0.23,0.05
		c-0.66-0.75-1.63-1.19-3.16-1.02c-4.49,0.53-8.19,5.02-8.45,9.51c-0.5,3.54,1.18,8.76,5.73,8.74l0.35,0.33
		c1.06,1.01,2.35,1.52,3.8,1.52c0.23,0,0.46-0.01,0.7-0.04c4.7-0.24,7.26-4.04,7.6-11.3l0-0.08l-0.02-0.08
		C62.65,73.33,62.54,72.64,62.43,71.92z M55.15,84.35c-1.05,0.11-1.99-0.07-2.8-0.52c3.85-0.85,5.96-4.58,6.27-11.12l0-0.08
		l-0.02-0.08c-0.16-0.54-0.27-1.23-0.39-1.96c-0.18-1.14-0.38-2.4-0.85-3.46c0,0,0.01,0,0.01,0c3.01-0.33,3.58,1.84,4.07,4.95
		c0.11,0.73,0.22,1.42,0.39,2.01C61.5,80.78,59.32,84.14,55.15,84.35z"/>
	<path fill="#7AC2DC" d="M90.41,17.58c1.05,0.99,2.41,1.5,4.02,1.5c0.13,0,0.26,0,0.39-0.01c4.57,0,4.95-3.51,5.28-6.6
		c0.11-1.03,0.22-2.1,0.48-3l0.04-0.13l-0.03-0.13c-0.12-0.48-0.22-0.98-0.32-1.48c-0.57-2.8-1.27-6.29-5.71-6.29
		c-0.26,0-0.5,0.02-0.74,0.04L93.36,1.5c-0.71-0.57-1.67-0.92-3.03-0.92c-5.02,0-6.6,4.22-6.34,7.66c0.25,3.56,1.01,8.83,6.03,8.97
		L90.41,17.58z M99.28,7.92c0.1,0.48,0.19,0.95,0.3,1.4c-0.26,0.96-0.37,2.02-0.48,3.04c-0.33,3.06-0.61,5.71-4.31,5.71
		c-1.04,0.05-1.93-0.12-2.69-0.5c3.16-0.71,3.48-3.74,3.78-6.45c0.11-1.03,0.23-2.09,0.49-3l0.04-0.13l-0.03-0.13
		c-0.12-0.47-0.22-0.96-0.32-1.46c-0.28-1.39-0.57-2.81-1.25-3.96C98.2,2.55,98.72,5.16,99.28,7.92z"/>
	<path fill="#7AC2DC" d="M12.18,2.48L11.23,2.5c-0.92-0.48-2.01-0.78-3.29-0.85c-3.7,0-6.87,2.11-6.87,6.6
		c-0.26,4.09,4.19,9.41,7.84,9.5l0.49,0.36c1.31,0.98,2.63,1.49,3.82,1.49c0.1,0,0.19,0,0.29-0.01c4.06-0.24,6.2-2.72,6.54-7.66
		C19.74,6.01,17.02,2.74,12.18,2.48z M13.44,18.59c-0.74,0.05-1.56-0.16-2.42-0.62c2.94-0.79,4.52-3.21,4.81-7.38
		c-0.16-3.01-0.94-5.33-2.33-6.93c4.24,0.92,5.38,4.94,5.55,8.26C18.75,16.27,16.97,18.39,13.44,18.59z"/>
	<path fill="#7AC2DC" d="M9.45,68.51c-0.05,0.01-0.11,0.01-0.21,0.03l-0.36,0.04c-0.83-0.79-1.96-1.21-3.58-0.92
		c-3.43,0.26-5.55,4.49-5.28,7.92c0.26,3.06,0.77,7.82,5.3,7.44l0.2,0.25c0.86,1.08,2.05,1.63,3.51,1.63c0.34,0,0.7-0.03,1.07-0.09
		c4.89-0.61,5.76-5.23,5.98-8.65l0-0.07l-0.13-0.57C15.21,72.22,14.18,67.7,9.45,68.51z M9.97,83.83c-1.25,0.2-2.26,0.02-3.03-0.56
		c3.97-1.1,4.73-5.29,4.94-8.44l0-0.07l-0.12-0.54c-0.37-1.61-0.78-3.4-1.59-4.79c3.08-0.23,3.95,2.5,4.82,6.33l0.1,0.42
		C14.75,81.06,13.17,83.43,9.97,83.83z"/>
	<path fill="#7AC2DC" d="M41.61,40.36c-0.49-2.51-1.1-5.64-5.44-5.39l-0.03,0c-0.15,0.02-0.3,0.04-0.53,0.08l-0.31,0.05
		c-0.69-0.67-1.71-1.07-3.32-0.98c-4.23,0.53-7.39,3.17-7.39,7.39c0,3.64,1.79,7.01,5.87,7.37l0.5,0.41
		c1.06,0.87,2.37,1.36,3.89,1.45c0.17,0.01,0.34,0.01,0.51,0.01c5.08,0,5.77-3.86,6.43-7.61l0.2-1.11l-0.03-0.11
		C41.82,41.43,41.71,40.9,41.61,40.36z M40.8,42.99c-0.69,3.9-1.23,6.99-5.9,6.77c-0.78-0.05-1.49-0.22-2.13-0.5
		c3.61-0.77,4.22-4.17,4.8-7.46l0.2-1.08l-0.03-0.11c-0.14-0.5-0.24-1.03-0.35-1.57c-0.21-1.06-0.42-2.15-0.88-3.08
		c0.04,0,0.08,0,0.12,0c3.1,0,3.52,2.14,3.99,4.6c0.1,0.53,0.2,1.05,0.33,1.54L40.8,42.99z"/>
	<path fill="#7AC2DC" d="M168.87,16.5c1.06,1,2.45,1.5,4.12,1.5c4.78,0,5.29-3.67,5.67-6.35c0.1-0.72,0.2-1.4,0.36-1.93l0.02-0.12
		c0.23-4-0.21-8.14-5.25-8.45c-0.31,0-0.6,0.02-0.89,0.05l-0.46,0.05c-0.71-0.53-1.63-0.87-2.87-0.95c-4.23,0-6.61,3.43-6.61,7.39
		c-0.26,3.62,0.76,8.25,5.53,8.43L168.87,16.5z M178.04,9.5c-0.17,0.6-0.27,1.29-0.37,2.02c-0.38,2.7-0.77,5.49-4.68,5.49
		c-0.94,0-1.77-0.19-2.48-0.55c3.18-0.8,3.61-3.85,3.94-6.14c0.1-0.71,0.2-1.39,0.36-1.92l0.02-0.12c0.16-2.82-0.12-4.76-0.91-6.1
		C177.15,2.44,178.32,4.51,178.04,9.5z"/>
	<path fill="#7AC2DC" d="M151.66,50.31c1.06,1,2.33,1.51,3.78,1.51c0.12,0,0.25,0,0.38-0.01c4.72,0,7.1-4.21,7.36-8.39l0.01-0.12
		l-0.04-0.11c-0.38-0.92-0.43-2.11-0.47-3.26c-0.1-2.61-0.21-5.56-4.48-5.77c-0.38,0-0.75,0.03-1.11,0.07l-0.34,0.04
		c-0.58-0.54-1.44-0.89-2.76-0.95c-5.02,0-7.92,3.96-8.45,8.45c-0.26,3.61,1.51,8.22,5.77,8.18L151.66,50.31z M158.17,35.17
		c3.33,0.16,3.4,2.21,3.5,4.8c0.04,1.19,0.09,2.43,0.5,3.49c-0.27,3.67-2.32,7.34-6.39,7.34c-0.94,0.06-1.78-0.13-2.52-0.54
		c3.63-0.88,5.48-4.59,5.7-8.19l0.01-0.12l-0.04-0.11c-0.38-0.92-0.43-2.11-0.48-3.25c-0.05-1.19-0.09-2.41-0.51-3.43
		C158.02,35.17,158.1,35.17,158.17,35.17z"/>
	<path fill="#7AC2DC" d="M171.08,83.5l0.28,0.31c0.94,1.03,2.25,1.55,3.88,1.55c0.13,0,0.27,0,0.4-0.01
		c5.59-0.23,6.43-4.98,7.11-8.79c0.15-0.86,0.3-1.67,0.48-2.42l0.02-0.12c0-2.91-0.58-4.76-1.76-5.65
		c-0.85-0.64-1.98-0.77-3.32-0.38l-0.58,0.11c-0.67-1-1.77-1.47-3.54-0.96c-4.23,0.79-8.98,2.38-8.45,7.92
		C165.86,78.67,166.13,83.54,171.08,83.5z M178.55,68.92c1.01-0.26,1.78-0.18,2.35,0.25c0.9,0.68,1.36,2.29,1.36,4.8
		c-0.19,0.76-0.33,1.57-0.48,2.43c-0.68,3.82-1.38,7.76-6.17,7.96c-1.08,0.05-1.97-0.13-2.68-0.55c4.26-0.96,5.01-5.17,5.62-8.6
		c0.15-0.85,0.3-1.66,0.48-2.4l0.02-0.12C179.04,71.12,178.88,69.88,178.55,68.92z"/>
	<path fill="#7AC2DC" d="M72.46,48.91L73,49.34c1.23,0.97,2.69,1.46,4.34,1.46c0.29,0,0.58-0.02,0.88-0.05
		c5-0.48,5.47-4.23,5.78-6.71c0.06-0.49,0.12-0.95,0.22-1.41c0.29-3.28-0.31-5.73-1.77-7.27c-1.16-1.22-2.78-1.8-4.83-1.73
		l-0.65,0.02c-1.03-0.66-2.31-0.95-3.81-0.86c-4.75,0.26-7.13,4.49-7.13,8.45C66.28,44.58,68.23,48.53,72.46,48.91z M81.73,36.06
		c1.26,1.32,1.76,3.51,1.51,6.43c-0.1,0.43-0.16,0.92-0.22,1.44c-0.3,2.42-0.68,5.43-4.89,5.83c-1.21,0.12-2.31-0.03-3.28-0.46
		c4.22-0.8,4.65-4.25,4.94-6.59c0.06-0.49,0.12-0.95,0.21-1.34l0.01-0.06c0.25-2.86-0.17-5.08-1.24-6.62
		C80,34.82,80.99,35.28,81.73,36.06z"/>
	<path fill="#7AC2DC" d="M50.99,16.17c0.01,0,0.03,0,0.04,0l0.33,0.3c1.13,1.03,2.36,1.56,3.57,1.56c0.1,0,0.21,0,0.31-0.01
		c5.05-0.32,5.9-5.01,6.27-7.01l0.01-0.06l0-0.06c-0.25-4.49-1.22-9.68-6.5-9.97c-0.28-0.04-0.58-0.06-0.92-0.05l-0.66,0.01
		c-0.73-0.45-1.62-0.74-2.7-0.8c-3.7-0.53-6.34,2.64-6.34,6.87C44.13,11.68,47.56,16.43,50.99,16.17z M60.51,10.87
		c-0.56,3.06-1.61,5.9-5.34,6.14c-0.89,0.07-1.7-0.26-2.35-0.68c3.05-1.02,4-4.05,4.47-6.67L57.3,9.6l0-0.06
		c-0.14-2.52-0.51-5.55-2.01-7.61C58.6,2.29,60.17,5,60.51,10.87z"/>
	<path fill="#7AC2DC" d="M133.65,83.77c0.05,0,0.09-0.01,0.13-0.01l0.33,0.32c1.04,1.01,2.26,1.55,3.44,1.55
		c0.11,0,0.22,0,0.32-0.01c5.89,0,6.4-4.55,6.89-8.95c0.12-1.11,0.25-2.26,0.47-3.34l0.03-0.13l-0.04-0.13
		c-0.1-0.31-0.12-0.79-0.15-1.3c-0.05-1.12-0.11-2.52-1.11-3.38c-0.72-0.62-1.78-0.84-3.23-0.68c-0.27,0.03-0.53,0.07-0.78,0.11
		l-0.17,0.03c-0.48-0.73-1.4-1.18-3.22-0.98c-5.28,0.53-7.92,4.49-8.45,9.24C127.57,80.08,130.48,84.04,133.65,83.77z M140.99,71.73
		c-0.1-0.31-0.12-0.79-0.15-1.3c-0.02-0.54-0.05-1.14-0.18-1.7c0.05-0.01,0.11-0.01,0.16-0.02c1.15-0.13,1.99,0.02,2.48,0.44
		c0.67,0.58,0.72,1.69,0.76,2.66c0.02,0.53,0.04,1.02,0.16,1.44c-0.21,1.08-0.33,2.21-0.46,3.3c-0.48,4.32-0.9,8.06-5.94,8.06
		c-0.73,0.06-1.47-0.14-2.17-0.58c4.01-0.96,4.45-4.91,4.89-8.73c0.12-1.11,0.25-2.25,0.47-3.32l0.03-0.13L140.99,71.73z"/>
	<path fill="#7AC2DC" d="M128.64,17.22l0.54,0.43c0.99,0.79,2.21,1.27,3.61,1.41c0.29,0.04,0.55,0.05,0.81,0.05
		c3.49,0,4.17-3.24,4.77-6.12c0.08-0.4,0.17-0.79,0.26-1.18l0.04-0.17l-0.08-0.16c-0.45-0.9-0.7-1.99-0.96-3.14
		c-0.61-2.67-1.3-5.71-4.99-6.12c-0.47-0.04-0.97,0-1.49,0.1l-0.33,0.07c-0.59-0.52-1.37-0.89-2.43-1.01
		c-3.17-0.26-6.61,2.91-6.34,6.34C122.56,11.68,123.35,16.69,128.64,17.22C128.63,17.22,128.63,17.22,128.64,17.22z M132.53,3.21
		c2.97,0.33,3.5,2.65,4.11,5.34c0.25,1.1,0.51,2.23,0.96,3.2c-0.08,0.34-0.15,0.69-0.22,1.03c-0.74,3.54-1.41,5.66-4.49,5.28
		c-0.76-0.08-1.44-0.26-2.05-0.54c2.24-0.8,2.8-3.48,3.3-5.88c0.08-0.39,0.16-0.79,0.25-1.17l0.04-0.17l-0.08-0.16
		c-0.45-0.9-0.7-1.98-0.96-3.13c-0.3-1.32-0.62-2.69-1.27-3.8C132.26,3.2,132.4,3.2,132.53,3.21z"/>
	<path fill="#7AC2DC" d="M94.18,83.79L94.36,84c0.62,0.76,1.62,1.69,3.29,1.69c0.28,0,0.58-0.03,0.91-0.08
		c3.46-0.32,4.48-3.39,4.92-5.62c0.37-1.1,0.61-2.32,0.81-3.3c0.09-0.47,0.18-0.89,0.26-1.22l0.02-0.85
		c0.02-2.97,0.04-5.77-2.98-6.87c-0.92-0.31-1.83-0.28-2.72,0.08l-0.13,0.05c-0.37-0.41-0.86-0.75-1.53-1
		c-2.38-0.79-4.23,1.06-5.55,3.17c-0.79,0.79-1.85,1.58-2.64,2.64c-2.64,2.38-1.58,5.02,0,7.39C90.32,82.16,91.37,84.24,94.18,83.79
		z M101.25,68.68c2.23,0.81,2.33,2.78,2.31,5.92l0,0.68c-0.08,0.34-0.16,0.75-0.25,1.21c-0.19,0.96-0.43,2.14-0.79,3.24
		c-0.65,3.22-1.86,4.68-4.09,4.89c-1.11,0.2-1.96,0-2.74-0.67c2.41-0.9,3.2-3.43,3.57-5.3c0.37-1.1,0.61-2.32,0.8-3.3
		c0.09-0.47,0.18-0.89,0.26-1.23l0.02-0.83c0.01-1.74,0.02-3.4-0.57-4.71C100.27,68.48,100.75,68.52,101.25,68.68z"/>
	<path fill="#7AC2DC" d="M110.87,48.92l0.38,0.35c1.08,1,2.43,1.5,4.03,1.5c0.15,0,0.31,0,0.46-0.01c5.68-0.63,6.07-6.4,6.25-9.18
		c0.15-2.6-0.54-4.8-1.96-6.18c-1.17-1.14-2.78-1.66-4.63-1.5l-0.51,0.04c-1.02-0.73-2.35-1.07-3.95-0.87
		c-3.96,0.53-5.81,4.75-5.81,8.45C105.13,45.05,106.81,48.81,110.87,48.92z M119.33,36.11c1.21,1.17,1.8,3.09,1.66,5.4
		c-0.31,4.63-1.34,7.8-5.34,8.25c-1.08,0.06-2.04-0.14-2.86-0.6c3.91-1.12,4.72-5.1,4.98-8.93v0c0.13-2.13-0.32-3.99-1.26-5.35
		C117.62,34.97,118.59,35.39,119.33,36.11z"/>
</g>
<g>
</g>
<g>
</g>
<g>
</g>
<g>
</g>
<g>
</g>
<g>
</g>
</svg>
